<?xml version="1.0" encoding="UTF-8" standalone="no"?>
<!-- Created with Inkscape (http://www.inkscape.org/) -->

<svg
   xmlns:dc="http://purl.org/dc/elements/1.1/"
   xmlns:cc="http://creativecommons.org/ns#"
   xmlns:rdf="http://www.w3.org/1999/02/22-rdf-syntax-ns#"
   xmlns:svg="http://www.w3.org/2000/svg"
   xmlns="http://www.w3.org/2000/svg"
   xmlns:sodipodi="http://sodipodi.sourceforge.net/DTD/sodipodi-0.dtd"
   xmlns:inkscape="http://www.inkscape.org/namespaces/inkscape"
   width="1024"
   height="512"
   id="svg2"
   version="1.1"
   inkscape:version="0.48.5 r10040"
   sodipodi:docname="thank-you-claylabs.svg"
   inkscape:export-filename="/home/vijaykumar/projects/pysangamam-art/thank-you-claylabs.png"
   inkscape:export-xdpi="90"
   inkscape:export-ydpi="90">
  <defs
     id="defs4" />
  <sodipodi:namedview
     id="base"
     pagecolor="#ffffff"
     bordercolor="#666666"
     borderopacity="1.0"
     inkscape:pageopacity="1"
     inkscape:pageshadow="2"
     inkscape:zoom="0.51218215"
     inkscape:cx="175.64502"
     inkscape:cy="211.50285"
     inkscape:document-units="px"
     inkscape:current-layer="layer1"
     showgrid="false"
     inkscape:window-width="1366"
     inkscape:window-height="719"
     inkscape:window-x="0"
     inkscape:window-y="26"
     inkscape:window-maximized="1">
    <inkscape:grid
       type="xygrid"
       id="grid4445"
       empspacing="10"
       visible="true"
       enabled="true"
       snapvisiblegridlinesonly="true" />
  </sodipodi:namedview>
  <metadata
     id="metadata7">
    <rdf:RDF>
      <cc:Work
         rdf:about="">
        <dc:format>image/svg+xml</dc:format>
        <dc:type
           rdf:resource="http://purl.org/dc/dcmitype/StillImage" />
        <dc:title></dc:title>
      </cc:Work>
    </rdf:RDF>
  </metadata>
  <g
     inkscape:label="Layer 1"
     inkscape:groupmode="layer"
     id="layer1"
     transform="translate(0,-540.36217)">
    <rect
       style="fill:#218c74;fill-opacity:1;stroke:#ffffff;stroke-width:0;stroke-miterlimit:4;stroke-opacity:1;stroke-dasharray:none;stroke-dashoffset:0"
       id="rect3673"
       width="1024"
       height="24"
       x="0"
       y="540.36218"
       ry="0" />
    <rect
       style="fill:#fb7d76;fill-opacity:1;stroke:none"
       id="rect4443"
       width="419.93997"
       height="109.58391"
       x="525.39404"
       y="822.02753"
       ry="24.334642"
       rx="22.333984" />
    <text
       xml:space="preserve"
       style="font-size:40px;font-style:normal;font-variant:normal;font-weight:normal;font-stretch:normal;line-height:125%;letter-spacing:0px;word-spacing:0px;fill:#ffffff;fill-opacity:1;stroke:none;font-family:Droid Sans;-inkscape-font-specification:Sans"
       x="642.56323"
       y="893.98743"
       id="text4476"
       sodipodi:linespacing="125%"><tspan
         sodipodi:role="line"
         id="tspan4478"
         x="642.56323"
         y="893.98743"
         style="font-size:48px;font-weight:bold;fill:#ffffff;fill-opacity:1;-inkscape-font-specification:Droid Sans Bold">PATRON</tspan></text>
    <flowRoot
       xml:space="preserve"
       id="flowRoot2985"
       style="font-size:40px;font-style:normal;font-variant:normal;font-weight:normal;font-stretch:normal;line-height:125%;letter-spacing:0px;word-spacing:0px;fill:#000000;fill-opacity:1;stroke:none;font-family:Droid Sans;-inkscape-font-specification:Sans"
       transform="translate(37.28646,629.72944)"><flowRegion
         id="flowRegion2987"><rect
           id="rect2989"
           width="493.9649"
           height="355.34235"
           x="484.20273"
           y="33.654552" /></flowRegion><flowPara
         id="flowPara2991"
         style="font-size:56px;fill:#218c74;fill-opacity:1">THANK YOU</flowPara><flowPara
         id="flowPara2993"
         style="font-size:56px;font-weight:bold;fill:#218c74;fill-opacity:1;-inkscape-font-specification:Droid Sans Bold">CLAY LABS</flowPara></flowRoot>    <g
       transform="matrix(0.85747426,0,0,0.85747426,47.396756,576.85794)"
       style="fill:none;stroke:none"
       id="Logo-Name">
      <path
         style="fill:#636363;fill-rule:nonzero"
         inkscape:connector-curvature="0"
         d="m 118.884,442.728 c 0.512,0.832 0.72,1.74399 0.624,2.736 -0.096,0.992 -0.75199,1.84 -1.968,2.544 -1.15201,0.64 -2.79999,1.43999 -4.944,2.4 -2.14401,0.96 -4.62399,1.872 -7.44,2.736 -2.81601,0.864 -5.935983,1.616 -9.36,2.256 -3.424017,0.64 -6.991981,0.992 -10.704,1.056 -3.456017,0.064 -6.415988,-0.32 -8.88,-1.152 -2.464012,-0.832 -4.319994,-2.03199 -5.568,-3.6 -1.248006,-1.56801 -1.856,-3.43999 -1.824,-5.616 0.032,-2.17601 0.815992,-4.60799 2.352,-7.296 0.960005,-1.66401 2.111993,-3.27999 3.456,-4.848 1.344007,-1.56801 2.863991,-3.03999 4.56,-4.416 1.696008,-1.37601 3.50399,-2.62399 5.424,-3.744 1.92001,-1.12001 3.935989,-2.064 6.048,-2.832 0.768004,-0.256 1.695995,-0.416 2.784,-0.48 1.088005,-0.064 2.015996,-0.032 2.784,0.096 1.472007,0.192 2.543997,0.656 3.216,1.392 0.672,0.736 1.04,1.552 1.104,2.448 0,0.896 -0.304,1.744 -0.912,2.544 -0.608003,0.8 -1.455995,1.296 -2.544,1.488 -0.768004,0.192 -1.599996,0.24 -2.496,0.144 -0.896005,-0.096 -1.791995,-0.304 -2.688,-0.624 -1.152006,0.32 -2.415993,0.864 -3.792,1.632 -1.376007,0.768 -2.703994,1.71199 -3.984,2.832 -1.280006,1.12001 -2.479994,2.31999 -3.6,3.6 -1.120006,1.28001 -1.999997,2.55999 -2.64,3.84 -0.512003,0.96 -0.784,1.90399 -0.816,2.832 -0.032,0.928 0.239997,1.744 0.816,2.448 0.576003,0.704 1.423994,1.264 2.544,1.68 1.120006,0.416 2.575991,0.624 4.368,0.624 3.200016,0 6.351985,-0.288 9.456,-0.864 3.104015,-0.576 5.98399,-1.28 8.64,-2.112 2.65601,-0.832 4.95999,-1.696 6.912,-2.592 1.95201,-0.896 3.376,-1.6 4.272,-2.112 0.96001,-0.512 1.872,-0.656 2.736,-0.432 0.864,0.224 1.552,0.688 2.064,1.392 z M 130.5,406.824 c -0.192,-3.52002 -0.832,-5.408 -1.92,-5.664 -1.02401,-0.32 -2.43199,0.89599 -4.224,3.648 -0.832,1.28001 -1.664,2.86399 -2.496,4.752 -0.832,1.88801 -1.616,3.96799 -2.352,6.24 -0.736,2.27201 -1.328,4.63999 -1.776,7.104 -0.448,2.46401 -0.704,4.84799 -0.768,7.152 -0.128,3.26402 0.32,6.23999 1.344,8.928 1.66401,-1.98401 3.32799,-4.11199 4.992,-6.384 1.66401,-2.27201 3.04,-4.68799 4.128,-7.248 0.384,-0.96001 0.784,-2.19199 1.2,-3.696 0.416,-1.50401 0.768,-3.11999 1.056,-4.848 0.288,-1.72801 0.512,-3.45599 0.672,-5.184 0.16,-1.72801 0.208,-3.32799 0.144,-4.8 z m 23.424,38.304 c 0.32,0.832 0.304,1.71199 -0.048,2.64 -0.352,0.92801 -1.16799,1.648 -2.448,2.16 -1.66401,0.576 -3.79199,1.312 -6.384,2.208 -2.59201,0.896 -5.32799,1.664 -8.208,2.304 -2.88001,0.64 -5.79199,1.024 -8.736,1.152 -2.94401,0.128 -5.59999,-0.28799 -7.968,-1.248 -4.03202,-1.66401 -6.78399,-4.57598 -8.256,-8.736 -1.47201,-4.16002 -2.176,-9.34397 -2.112,-15.552 0,-2.68801 0.256,-5.47199 0.768,-8.352 0.512,-2.88001 1.2,-5.64799 2.064,-8.304 0.864,-2.65601 1.85599,-5.15199 2.976,-7.488 1.12001,-2.33601 2.25599,-4.33599 3.408,-6 2.04801,-2.88001 4.07999,-5.02399 6.096,-6.432 2.01601,-1.40801 3.91999,-1.952 5.712,-1.632 1.92001,0.256 3.50399,1.48799 4.752,3.696 1.24801,2.20801 2,5.48798 2.256,9.84 0.128,1.72801 0.128,3.59999 0,5.616 -0.128,2.01601 -0.368,4.04799 -0.72,6.096 -0.352,2.04801 -0.8,4.04799 -1.344,6 -0.544,1.95201 -1.168,3.72799 -1.872,5.328 -0.768,1.79201 -1.648,3.50399 -2.64,5.136 -0.99201,1.63201 -2.032,3.18399 -3.12,4.656 -1.088,1.47201 -2.19199,2.84799 -3.312,4.128 -1.12001,1.28001 -2.19199,2.46399 -3.216,3.552 0.384,0.32 0.976,0.704 1.776,1.152 0.8,0.448 1.552,0.736 2.256,0.864 1.60001,0.256 3.35999,0.272 5.28,0.048 1.92001,-0.224 3.90399,-0.592 5.952,-1.104 2.04801,-0.512 4.12799,-1.104 6.24,-1.776 2.11201,-0.672 4.12799,-1.36 6.048,-2.064 1.088,-0.384 2.08,-0.352 2.976,0.096 0.896,0.448 1.504,1.12 1.824,2.016 z m 49.344,-0.192 c 0.64,0.832 0.88,1.792 0.72,2.88 -0.16,1.088 -0.752,1.952 -1.776,2.592 -2.17601,1.21601 -4.65599,2.32 -7.44,3.312 -2.78401,0.992 -5.35999,1.616 -7.728,1.872 -2.81601,0.256 -4.97599,0.096 -6.48,-0.48 -1.50401,-0.576 -2.8,-1.69599 -3.888,-3.36 -0.448,-0.576 -0.848,-1.43999 -1.2,-2.592 -0.352,-1.15201 -0.528,-2.176 -0.528,-3.072 -0.064,-0.512 -0.304,-0.816 -0.72,-0.912 -0.416,-0.096 -0.88,0.048 -1.392,0.432 -0.704,0.448 -1.552,1.072 -2.544,1.872 -0.99201,0.8 -2.04799,1.67999 -3.168,2.64 -1.12001,0.96001 -2.25599,1.952 -3.408,2.976 -1.15201,1.024 -2.24,1.952 -3.264,2.784 -2.43201,1.85601 -4.70399,2.832 -6.816,2.928 -2.11201,0.096 -3.83999,-0.46399 -5.184,-1.68 -1.66401,-1.47201 -2.496,-3.67999 -2.496,-6.624 0.064,-1.40801 0.288,-2.79999 0.672,-4.176 0.384,-1.37601 0.896,-2.70399 1.536,-3.984 0.96,-1.92001 2.14399,-3.80799 3.552,-5.664 1.40801,-1.85601 2.89599,-3.59999 4.464,-5.232 1.56801,-1.63201 3.15199,-3.10399 4.752,-4.416 1.60001,-1.31201 3.07199,-2.416 4.416,-3.312 1.15201,-0.768 2.46399,-1.584 3.936,-2.448 1.47201,-0.864 3.05599,-1.504 4.752,-1.92 1.69601,-0.416 3.47199,-0.496 5.328,-0.24 1.85601,0.256 3.71199,1.15199 5.568,2.688 0.832,0.704 1.28,1.472 1.344,2.304 0.064,0.832 -0.096,1.6 -0.48,2.304 -0.512,0.896 -1.32799,1.488 -2.448,1.776 -1.12001,0.288 -2.192,0.112 -3.216,-0.528 -1.47201,-1.15201 -3.08799,-1.584 -4.848,-1.296 -1.76001,0.288 -3.82399,1.23199 -6.192,2.832 -1.15201,0.768 -2.44799,1.77599 -3.888,3.024 -1.44001,1.24801 -2.83199,2.60799 -4.176,4.08 -1.34401,1.47201 -2.60799,2.99199 -3.792,4.56 -1.18401,1.56801 -2.128,3.08799 -2.832,4.56 -0.384,0.768 -0.64,1.69599 -0.768,2.784 -0.128,1.088 0.064,1.824 0.576,2.208 0.704,0.576 1.72799,0.28801 3.072,-0.864 0.96,-0.832 2.15999,-1.85599 3.6,-3.072 1.44001,-1.21601 2.92799,-2.44799 4.464,-3.696 1.53601,-1.24801 3.05599,-2.44799 4.56,-3.6 1.50401,-1.15201 2.83199,-2.08 3.984,-2.784 0.96,-0.576 1.93599,-0.976 2.928,-1.2 0.992,-0.224 1.872,-0.24 2.64,-0.048 0.768,0.192 1.376,0.608 1.824,1.248 0.448,0.64 0.672,1.504 0.672,2.592 -0.064,1.28001 -0.048,2.47999 0.048,3.6 0.096,1.12001 0.304,2.096 0.624,2.928 0.384,1.088 0.912,1.824 1.584,2.208 0.672,0.384 1.55199,0.544 2.64,0.48 0.832,-0.128 1.79199,-0.336 2.88,-0.624 1.088,-0.288 2.17599,-0.624 3.264,-1.008 1.088,-0.384 2.15999,-0.784 3.216,-1.2 1.056,-0.416 1.968,-0.816 2.736,-1.2 0.96,-0.448 1.792,-0.576 2.496,-0.384 0.704,0.192 1.312,0.576 1.824,1.152 z m 40.32,-16.032 c 0.128,1.47201 0.192,3.39199 0.192,5.76 0,2.36801 -0.096,5.00798 -0.288,7.92 -0.192,2.91201 -0.432,6.01598 -0.72,9.312 -0.288,3.29602 -0.656,6.63998 -1.104,10.032 -0.448,3.39202 -0.928,6.75198 -1.44,10.08 -0.512,3.32802 -1.088,6.46399 -1.728,9.408 -0.256,1.28001 -0.832,2.176 -1.728,2.688 -0.896,0.512 -1.792,0.672 -2.688,0.48 -0.96001,-0.128 -1.744,-0.592 -2.352,-1.392 -0.608,-0.8 -0.752,-1.87199 -0.432,-3.216 0.768,-3.00802 1.44,-6.36798 2.016,-10.08 0.576,-3.71202 1.056,-7.48798 1.44,-11.328 0.384,-3.84002 0.688,-7.59998 0.912,-11.28 0.224,-3.68002 0.368,-6.99199 0.432,-9.936 0.064,-0.576 0,-0.992 -0.192,-1.248 -0.192,-0.256 -0.464,-0.416 -0.816,-0.48 -0.352,-0.064 -0.72,0 -1.104,0.192 -0.384,0.192 -0.736,0.448 -1.056,0.768 -1.02401,0.96001 -2.30399,2.11199 -3.84,3.456 -1.53601,1.34401 -3.16799,2.73599 -4.896,4.176 -1.72801,1.44001 -3.47199,2.83199 -5.232,4.176 -1.76001,1.34401 -3.37599,2.49599 -4.848,3.456 -2.68801,1.66401 -5.26399,2.704 -7.728,3.12 -2.46401,0.416 -4.78399,-0.23999 -6.96,-1.968 -0.768,-0.704 -1.52,-1.66399 -2.256,-2.88 -0.736,-1.21601 -1.136,-2.84799 -1.2,-4.896 0,-1.53601 0.24,-3.18399 0.72,-4.944 0.48,-1.76001 1.104,-3.47199 1.872,-5.136 0.768,-1.66401 1.584,-3.19999 2.448,-4.608 0.864,-1.40801 1.648,-2.528 2.352,-3.36 0.704,-0.896 1.53599,-1.408 2.496,-1.536 0.96,-0.128 1.792,-0.032 2.496,0.288 1.024,0.512 1.664,1.264 1.92,2.256 0.256,0.992 -0.096,2.09599 -1.056,3.312 -0.576,0.704 -1.184,1.6 -1.824,2.688 -0.64,1.088 -1.248,2.20799 -1.824,3.36 -0.576,1.15201 -1.04,2.30399 -1.392,3.456 -0.352,1.15201 -0.528,2.176 -0.528,3.072 0,0.704 0.128,1.264 0.384,1.68 0.256,0.416 0.512,0.752 0.768,1.008 0.576,0.576 1.32799,0.768 2.256,0.576 0.928,-0.192 2.03199,-0.704 3.312,-1.536 1.92001,-1.21601 3.91999,-2.63999 6,-4.272 2.08001,-1.63201 4.17599,-3.35999 6.288,-5.184 2.11201,-1.82401 4.17599,-3.66399 6.192,-5.52 2.01601,-1.85601 3.88799,-3.61599 5.616,-5.28 0.768,-0.832 1.69599,-1.344 2.784,-1.536 1.088,-0.192 2.11199,-0.128 3.072,0.192 0.832,0.32 1.552,0.864 2.16,1.632 0.608,0.768 0.976,1.79199 1.104,3.072 z m 68.256,-22.08 c -0.192,-3.52002 -0.832,-5.408 -1.92,-5.664 -1.02401,-0.32 -2.43199,0.89599 -4.224,3.648 -0.832,1.28001 -1.664,2.86399 -2.496,4.752 -0.832,1.88801 -1.616,3.96799 -2.352,6.24 -0.736,2.27201 -1.328,4.63999 -1.776,7.104 -0.448,2.46401 -0.704,4.84799 -0.768,7.152 -0.128,3.26402 0.31999,6.23999 1.344,8.928 1.66401,-1.98401 3.32799,-4.11199 4.992,-6.384 1.66401,-2.27201 3.03999,-4.68799 4.128,-7.248 0.384,-0.96001 0.784,-2.19199 1.2,-3.696 0.416,-1.50401 0.768,-3.11999 1.056,-4.848 0.288,-1.72801 0.512,-3.45599 0.672,-5.184 0.16,-1.72801 0.208,-3.32799 0.144,-4.8 z m 23.424,38.304 c 0.32,0.832 0.304,1.71199 -0.048,2.64 -0.352,0.92801 -1.16799,1.648 -2.448,2.16 -1.66401,0.576 -3.79199,1.312 -6.384,2.208 -2.59201,0.896 -5.32799,1.664 -8.208,2.304 -2.88001,0.64 -5.79199,1.024 -8.736,1.152 -2.94402,0.128 -5.59999,-0.28799 -7.968,-1.248 -4.03202,-1.66401 -6.78399,-4.57598 -8.256,-8.736 -1.47201,-4.16002 -2.176,-9.34397 -2.112,-15.552 0,-2.68801 0.256,-5.47199 0.768,-8.352 0.512,-2.88001 1.2,-5.64799 2.064,-8.304 0.864,-2.65601 1.85599,-5.15199 2.976,-7.488 1.12001,-2.33601 2.25599,-4.33599 3.408,-6 2.04801,-2.88001 4.07999,-5.02399 6.096,-6.432 2.01601,-1.40801 3.91999,-1.952 5.712,-1.632 1.92001,0.256 3.50399,1.48799 4.752,3.696 1.24801,2.20801 2,5.48798 2.256,9.84 0.128,1.72801 0.128,3.59999 0,5.616 -0.128,2.01601 -0.368,4.04799 -0.72,6.096 -0.352,2.04801 -0.8,4.04799 -1.344,6 -0.544,1.95201 -1.168,3.72799 -1.872,5.328 -0.768,1.79201 -1.64799,3.50399 -2.64,5.136 -0.992,1.63201 -2.03199,3.18399 -3.12,4.656 -1.08801,1.47201 -2.19199,2.84799 -3.312,4.128 -1.12001,1.28001 -2.192,2.46399 -3.216,3.552 0.384,0.32 0.976,0.704 1.776,1.152 0.8,0.448 1.552,0.736 2.256,0.864 1.60001,0.256 3.35999,0.272 5.28,0.048 1.92001,-0.224 3.90399,-0.592 5.952,-1.104 2.04801,-0.512 4.12799,-1.104 6.24,-1.776 2.11201,-0.672 4.12799,-1.36 6.048,-2.064 1.08801,-0.384 2.08,-0.352 2.976,0.096 0.896,0.448 1.504,1.12 1.824,2.016 z m 49.344,-0.192 c 0.64,0.832 0.88,1.792 0.72,2.88 -0.16,1.088 -0.75199,1.952 -1.776,2.592 -2.17601,1.21601 -4.65599,2.32 -7.44,3.312 -2.78401,0.992 -5.35999,1.616 -7.728,1.872 -2.81601,0.256 -4.97599,0.096 -6.48,-0.48 -1.50401,-0.576 -2.8,-1.69599 -3.888,-3.36 -0.448,-0.576 -0.848,-1.43999 -1.2,-2.592 -0.352,-1.15201 -0.528,-2.176 -0.528,-3.072 -0.064,-0.512 -0.304,-0.816 -0.72,-0.912 -0.416,-0.096 -0.88,0.048 -1.392,0.432 -0.704,0.448 -1.552,1.072 -2.544,1.872 -0.992,0.8 -2.04799,1.67999 -3.168,2.64 -1.12001,0.96001 -2.25599,1.952 -3.408,2.976 -1.15201,1.024 -2.24,1.952 -3.264,2.784 -2.43201,1.85601 -4.70399,2.832 -6.816,2.928 -2.11201,0.096 -3.83999,-0.46399 -5.184,-1.68 -1.66401,-1.47201 -2.496,-3.67999 -2.496,-6.624 0.064,-1.40801 0.288,-2.79999 0.672,-4.176 0.384,-1.37601 0.896,-2.70399 1.536,-3.984 0.96,-1.92001 2.14399,-3.80799 3.552,-5.664 1.40801,-1.85601 2.89599,-3.59999 4.464,-5.232 1.56801,-1.63201 3.15199,-3.10399 4.752,-4.416 1.60001,-1.31201 3.07199,-2.416 4.416,-3.312 1.15201,-0.768 2.46399,-1.584 3.936,-2.448 1.47201,-0.864 3.05599,-1.504 4.752,-1.92 1.69601,-0.416 3.47199,-0.496 5.328,-0.24 1.85601,0.256 3.71199,1.15199 5.568,2.688 0.832,0.704 1.28,1.472 1.344,2.304 0.064,0.832 -0.096,1.6 -0.48,2.304 -0.512,0.896 -1.32799,1.488 -2.448,1.776 -1.12001,0.288 -2.192,0.112 -3.216,-0.528 -1.47201,-1.15201 -3.08799,-1.584 -4.848,-1.296 -1.76001,0.288 -3.82399,1.23199 -6.192,2.832 -1.15201,0.768 -2.44799,1.77599 -3.888,3.024 -1.44001,1.24801 -2.83199,2.60799 -4.176,4.08 -1.34401,1.47201 -2.60799,2.99199 -3.792,4.56 -1.18401,1.56801 -2.128,3.08799 -2.832,4.56 -0.384,0.768 -0.64,1.69599 -0.768,2.784 -0.128,1.088 0.064,1.824 0.576,2.208 0.704,0.576 1.72799,0.28801 3.072,-0.864 0.96,-0.832 2.15999,-1.85599 3.6,-3.072 1.44001,-1.21601 2.92799,-2.44799 4.464,-3.696 1.53601,-1.24801 3.05599,-2.44799 4.56,-3.6 1.50401,-1.15201 2.83199,-2.08 3.984,-2.784 0.96001,-0.576 1.93599,-0.976 2.928,-1.2 0.992,-0.224 1.872,-0.24 2.64,-0.048 0.768,0.192 1.376,0.608 1.824,1.248 0.448,0.64 0.672,1.504 0.672,2.592 -0.064,1.28001 -0.048,2.47999 0.048,3.6 0.096,1.12001 0.304,2.096 0.624,2.928 0.384,1.088 0.912,1.824 1.584,2.208 0.672,0.384 1.552,0.544 2.64,0.48 0.832,-0.128 1.79199,-0.336 2.88,-0.624 1.088,-0.288 2.176,-0.624 3.264,-1.008 1.088,-0.384 2.16,-0.784 3.216,-1.2 1.056,-0.416 1.968,-0.816 2.736,-1.2 0.96,-0.448 1.792,-0.576 2.496,-0.384 0.704,0.192 1.312,0.576 1.824,1.152 z m 31.104,-19.776 c 1.34401,1.53601 1.952,3.59999 1.824,6.192 -0.128,2.59201 -0.99199,5.32799 -2.592,8.208 -0.768,1.60001 -1.74399,3.26399 -2.928,4.992 -1.18401,1.72801 -2.47999,3.35999 -3.888,4.896 -2.24001,2.43201 -4.71999,4.59199 -7.44,6.48 -2.72001,1.88801 -5.48799,3.72799 -8.304,5.52 -0.96001,0.64 -1.888,0.832 -2.784,0.576 -0.896,-0.256 -1.6,-0.8 -2.112,-1.632 -0.448,-0.768 -0.576,-1.64799 -0.384,-2.64 0.192,-0.99201 0.672,-1.744 1.44,-2.256 3.00801,-1.92001 5.72799,-3.72799 8.16,-5.424 2.43201,-1.69601 4.54399,-3.59999 6.336,-5.712 1.15201,-1.28001 2.22399,-2.65599 3.216,-4.128 0.992,-1.47201 1.744,-2.81599 2.256,-4.032 0.576,-1.21601 0.96,-2.256 1.152,-3.12 0.192,-0.864 0.032,-1.648 -0.48,-2.352 -0.32,-0.448 -0.8,-0.752 -1.44,-0.912 -0.64,-0.16 -1.56799,-0.176 -2.784,-0.048 -1.66401,0.192 -3.64799,0.672 -5.952,1.44 -2.30401,0.768 -4.54399,1.79199 -6.72,3.072 -1.088,0.64 -2.144,1.408 -3.168,2.304 -1.02401,0.896 -1.792,1.88799 -2.304,2.976 -0.128,0.32 -0.24,0.624 -0.336,0.912 l -0.336,1.008 c -0.128,0.896 -0.176,1.776 -0.144,2.64 0.032,0.864 0.08,1.68 0.144,2.448 -0.064,1.15201 -0.432,2.032 -1.104,2.64 -0.672,0.608 -1.424,0.944 -2.256,1.008 -0.832,0.064 -1.616,-0.192 -2.352,-0.768 -0.736,-0.576 -1.232,-1.47199 -1.488,-2.688 -0.384,-1.85601 -0.624,-4.04799 -0.72,-6.576 -0.096,-2.52801 -0.096,-5.21599 0,-8.064 0.096,-2.84801 0.272,-5.79199 0.528,-8.832 0.256,-3.04001 0.56,-5.96799 0.912,-8.784 0.352,-2.81601 0.72,-5.45599 1.104,-7.92 0.384,-2.46401 0.768,-4.59199 1.152,-6.384 0.192,-1.02401 0.4,-1.936 0.624,-2.736 0.224,-0.8 0.592,-1.552 1.104,-2.256 0.896,-1.28001 2.14399,-1.856 3.744,-1.728 0.96,0 1.76,0.272 2.4,0.816 0.64,0.544 0.896,1.32799 0.768,2.352 -0.064,0.768 -0.288,1.52 -0.672,2.256 -0.384,0.736 -0.64,1.328 -0.768,1.776 -0.32,1.85601 -0.656,3.95199 -1.008,6.288 -0.352,2.33601 -0.704,4.83199 -1.056,7.488 -0.352,2.65601 -0.656,5.39199 -0.912,8.208 -0.256,2.81601 -0.448,5.59999 -0.576,8.352 0.64,-0.768 1.47199,-1.52 2.496,-2.256 1.024,-0.736 2.04799,-1.36 3.072,-1.872 1.79201,-0.896 3.93599,-1.776 6.432,-2.64 2.49601,-0.864 4.99199,-1.456 7.488,-1.776 2.56001,-0.384 4.71999,-0.304 6.48,0.24 1.76001,0.544 3.152,1.36 4.176,2.448 z m 38.496,-5.472 c -0.384,0.576 -0.912,1.024 -1.584,1.344 -0.672,0.32 -1.456,0.32 -2.352,0 -0.896,-0.32 -1.792,-0.768 -2.688,-1.344 -0.896,0 -2.04799,0.176 -3.456,0.528 -1.40801,0.352 -2.87999,0.816 -4.416,1.392 -1.53601,0.576 -3.05599,1.232 -4.56,1.968 -1.50401,0.736 -2.8,1.488 -3.888,2.256 -1.66401,1.088 -2.528,2.11199 -2.592,3.072 0,0.832 0.76799,1.664 2.304,2.496 1.92001,1.02401 3.80799,1.952 5.664,2.784 1.85601,0.832 3.87199,2.07999 6.048,3.744 1.47201,1.21601 2.528,2.68799 3.168,4.416 0.64,1.72801 0.96,3.42399 0.96,5.088 0,1.79201 -0.288,3.56799 -0.864,5.328 -0.576,1.76001 -1.344,3.34399 -2.304,4.752 -1.66401,2.56001 -3.66399,4.95999 -6,7.2 -2.33601,2.24001 -5.13598,4.25599 -8.4,6.048 -1.47201,0.832 -3.00799,1.248 -4.608,1.248 -1.53601,0 -3.03999,-0.352 -4.512,-1.056 -1.34401,-0.704 -2.16,-1.59999 -2.448,-2.688 -0.288,-1.08801 -0.24,-2.08 0.144,-2.976 0.448,-0.96001 1.16799,-1.616 2.16,-1.968 0.992,-0.352 2.09599,-0.144 3.312,0.624 0.512,0.384 1.088,0.56 1.728,0.528 0.64,-0.032 1.216,-0.208 1.728,-0.528 2.11201,-1.28001 4.17599,-2.86399 6.192,-4.752 2.01601,-1.88801 3.56799,-3.72799 4.656,-5.52 0.704,-1.088 1.216,-2.144 1.536,-3.168 0.32,-1.02401 0.48,-1.984 0.48,-2.88 0.064,-1.60001 -0.47999,-2.97599 -1.632,-4.128 -1.21601,-1.088 -2.84799,-2.128 -4.896,-3.12 -2.04801,-0.992 -4.28799,-2.032 -6.72,-3.12 -2.17601,-0.896 -3.808,-2.01599 -4.896,-3.36 -1.08801,-1.34401 -1.632,-2.78399 -1.632,-4.32 0,-1.47201 0.57599,-3.00799 1.728,-4.608 1.15201,-1.60001 2.87999,-3.13599 5.184,-4.608 1.21601,-0.832 2.65599,-1.696 4.32,-2.592 1.66401,-0.896 3.42399,-1.712 5.28,-2.448 1.85601,-0.736 3.79199,-1.36 5.808,-1.872 2.01601,-0.512 3.98399,-0.8 5.904,-0.864 1.28001,-0.064 2.432,0.112 3.456,0.528 1.024,0.416 1.824,0.976 2.4,1.68 0.704,0.768 1.056,1.6 1.056,2.496 0,0.896 -0.256,1.696 -0.768,2.4 z"
         id="clay-labs---Outline" />
      <path
         style="fill:#ff861e"
         inkscape:connector-curvature="0"
         d="m 138.41174,130.47814 c 25.84302,11.68486 68.91195,19.33606 117.67667,19.33606 49.22906,0 92.65334,-7.7976 118.4102,-19.67095 36.74876,24.46026 59.91298,60.18275 59.91298,99.97009 0,73.73739 -79.56159,133.51335 -177.70579,133.51335 C 158.56159,363.62669 79,303.85073 79,230.11334 c 0,-39.60614 22.95372,-75.18437 59.41174,-99.6352 z m 118.32526,0.92619 c -67.47362,0 -122.17178,-15.9844 -122.17178,-35.702166 C 134.56522,75.984403 189.26338,60 256.737,60 c 67.47362,0 122.17178,15.984403 122.17178,35.702164 0,19.717766 -54.69816,35.702166 -122.17178,35.702166 z"
         id="Logo-Shape" />
    </g>
  </g>
</svg>
